<svg id="Слой_1" data-name="Слой 1" xmlns="http://www.w3.org/2000/svg" viewBox="0 0 110 30"><defs><style>.cls-1{fill:#ed1504;}.cls-2{fill:#1a00aa;}</style></defs><title>IS-logo</title><path class="cls-1" d="M37.68,2.59h3.75V23.76H37.68Z"/><path class="cls-1" d="M58.3,14.86v8.9H54.56V15.32a2.7,2.7,0,0,0-2.87-3c-1.83,0-3.19,1.08-3.19,3.6v7.83H44.75V9.26H48.5v1.62a4.93,4.93,0,0,1,4.32-2C55.89,8.85,58.3,11,58.3,14.86Z"/><path class="cls-2" d="M60.44,19.15l3.42-2a4.56,4.56,0,0,0,4.67,3.1c2.41,0,3.25-1,3.25-2.14,0-1.51-1.36-2.09-4.38-3s-6.12-2.21-6.12-6.07,3.19-6,6.67-6A7.71,7.71,0,0,1,75.2,7.6l-3.36,2A4,4,0,0,0,68,6.94c-1.68,0-2.67.87-2.67,2s.78,1.91,3.86,2.84,6.64,2.09,6.64,6.24c0,3.8-3,6.12-7.37,6.12C64.27,24.17,61.54,22.17,60.44,19.15Z"/><path class="cls-2" d="M85.47,20.77a4,4,0,0,0,3.24-1.45l3,1.74a7.32,7.32,0,0,1-6.32,3.11c-4.88,0-8-3.34-8-7.66a7.5,7.5,0,1,1,15,0,8.38,8.38,0,0,1-.15,1.54H81.38C81.9,20,83.49,20.77,85.47,20.77Zm3.24-5.62a3.51,3.51,0,0,0-3.59-2.93,3.61,3.61,0,0,0-3.8,2.93Z"/><path class="cls-2" d="M95,2.59h3.75V23.76H95Z"/><path class="cls-2" d="M106.93,9.11v.15H110v3.6h-3.07v10.9h-3.75V12.86H101.1V9.26h2.08V9.11c0-4,2.21-6.35,6.82-6.06v3.6C108.06,6.5,106.93,7.14,106.93,9.11Z"/><path class="cls-1" d="M21.75,15a9.81,9.81,0,0,1,5.12-8.61,15.57,15.57,0,0,0-2-2.29,12.77,12.77,0,0,0,0,21.81,15.64,15.64,0,0,0,2-2.3A9.8,9.8,0,0,1,21.75,15Z"/><path class="cls-1" d="M27.4,15a4.15,4.15,0,0,1,1.79-3.41,14.4,14.4,0,0,0-1-2.9,7.15,7.15,0,0,0,0,12.62,14.4,14.4,0,0,0,1-2.9A4.15,4.15,0,0,1,27.4,15Z"/><path class="cls-2" d="M12.62.15A21,21,0,0,1,18.75,15a21.08,21.08,0,0,1-6.13,14.86,16,16,0,0,0,2,.14,14.86,14.86,0,0,0,2-.15A24,24,0,0,0,21.75,15,24,24,0,0,0,16.61.15a14.86,14.86,0,0,0-2-.15A14.3,14.3,0,0,0,12.62.15Z"/><path class="cls-1" d="M16.57,29.86a21.06,21.06,0,0,1,0-29.71,14.16,14.16,0,0,0-2-.15,14.89,14.89,0,0,0-2,.15,24,24,0,0,0,0,29.7,14.89,14.89,0,0,0,2,.15A15.88,15.88,0,0,0,16.57,29.86Z"/><path class="cls-1" d="M16.1,15A15.43,15.43,0,0,1,22.67,2.37a14.65,14.65,0,0,0-3-1.47,18.42,18.42,0,0,0,0,28.2,14.65,14.65,0,0,0,3-1.47A15.43,15.43,0,0,1,16.1,15Z"/><path class="cls-2" d="M1,8.69a15,15,0,0,0-1,2.9A4.15,4.15,0,0,1,1.79,15,4.15,4.15,0,0,1,0,18.41a15,15,0,0,0,1,2.9A7.17,7.17,0,0,0,4.79,15,7.17,7.17,0,0,0,1,8.69Z"/><path class="cls-2" d="M2.32,6.39A9.81,9.81,0,0,1,7.44,15a9.8,9.8,0,0,1-5.12,8.61,15.64,15.64,0,0,0,2,2.3A12.83,12.83,0,0,0,10.44,15,12.8,12.8,0,0,0,4.32,4.1,15.06,15.06,0,0,0,2.32,6.39Z"/><path class="cls-2" d="M9.52.9a14.91,14.91,0,0,0-3,1.47A15.44,15.44,0,0,1,13.1,15,15.44,15.44,0,0,1,6.52,27.63a14.91,14.91,0,0,0,3,1.47A18.41,18.41,0,0,0,16.1,15,18.41,18.41,0,0,0,9.52.9Z"/></svg>